<?xml version="1.0" encoding="utf-8"?>
<!-- Generator: Adobe Illustrator 16.0.0, SVG Export Plug-In . SVG Version: 6.00 Build 0)  -->
<!DOCTYPE svg PUBLIC "-//W3C//DTD SVG 1.1//EN" "http://www.w3.org/Graphics/SVG/1.1/DTD/svg11.dtd">
<svg version="1.1" id="Layer_1" xmlns="http://www.w3.org/2000/svg" xmlns:xlink="http://www.w3.org/1999/xlink" x="0px" y="0px"
	 width="100px" height="150px" viewBox="-724.331 644.17 100 150" enable-background="new -724.331 644.17 100 150"
	 xml:space="preserve">
<g>
	<g>
		<g>
			<polygon fill="#FF8000" points="-662.627,748.6 -674.024,755.18 -696.819,742.019 -708.762,748.914 -674.024,768.969 
				-650.686,755.493 			"/>
			<g>
				<path fill="#FF8000" d="M-685.188,735.333l-11.644,6.68l11.606,6.744L-685.188,735.333z"/>
				<polygon fill="#FFFFFF" points="-695.009,742.018 -686.104,736.91 -686.133,747.175 				"/>
			</g>
			<polygon fill="#D13E00" points="-663.545,722.549 -663.545,749.184 -651.604,756.078 -651.604,715.653 			"/>
			<polygon fill="#D13E00" points="-674.331,676.198 -708.795,696.109 -674.331,716.151 -639.866,696.109 			"/>
			<polygon fill="#FF8B00" points="-674.331,716.151 -708.795,696.109 -708.795,710.042 -674.331,729.94 -639.867,710.042 
				-639.866,696.109 			"/>
			<polygon fill="#FF5500" points="-674.331,676.198 -708.795,655.757 -708.795,696.109 			"/>
			<polygon fill="#FF4800" points="-651.808,716.922 -651.808,755.79 -674.331,768.793 -708.795,748.896 -708.795,762.685 
				-674.331,782.583 -640.003,762.763 -639.867,762.685 -639.867,710.028 			"/>
			<g>
				<polygon fill="#FF5500" points="-674.334,676.198 -639.868,655.757 -639.868,696.109 				"/>
				<polygon fill="#FFFFFF" points="-640.796,667.698 -640.794,657.362 -649.687,662.566 				"/>
			</g>
		</g>
		<polygon fill="#FFFFFF" points="-707.869,667.698 -707.869,657.362 -698.978,662.566 		"/>
	</g>
	<g>
		<polygon fill="#FFFFFF" points="-693.998,696.114 -691.269,692.841 -688.54,696.114 		"/>
		<polygon fill="#FFFFFF" points="-654.663,696.109 -657.392,692.836 -660.121,696.109 		"/>
	</g>
</g>
</svg>
